<svg xmlns="http://www.w3.org/2000/svg" width="367" height="344" fill="none"><path fill="#39435A" d="m229.645 13.216 84.426 145.924a25.681 25.681 0 0 1 0 25.724l-84.426 145.924a25.786 25.786 0 0 1-22.324 12.862h49.476a25.786 25.786 0 0 0 22.323-12.862l84.427-145.924a25.681 25.681 0 0 0 0-25.724L279.12 13.216A25.786 25.786 0 0 0 256.797.353h-49.476c9.21 0 17.72 4.902 22.324 12.862Z"/><path fill="#2C374C" d="m229.645 13.216 3.761 6.502c6.394.093 13.036.617 19.814 1.611 13.488 1.98 25.921 5.59 36.544 10.287l-10.646-18.4A25.78 25.78 0 0 0 256.797.354h-49.476c9.21 0 17.72 4.902 22.324 12.862Z"/><path fill="#39435A" d="m134.403 13.216 84.426 145.924a25.681 25.681 0 0 1 0 25.724l-84.426 145.924a25.787 25.787 0 0 1-22.324 12.862h49.476a25.786 25.786 0 0 0 22.323-12.862l84.427-145.924a25.681 25.681 0 0 0 0-25.724L183.878 13.216A25.788 25.788 0 0 0 161.553.353h-49.474a25.79 25.79 0 0 1 22.324 12.862Z"/><path fill="#435F94" d="M138.116 330.784 53.689 184.86a25.68 25.68 0 0 1 0-25.724l84.427-145.924A25.785 25.785 0 0 1 160.439.35h-49.475c-9.21 0-17.72 4.903-22.324 12.862L4.214 159.136a25.68 25.68 0 0 0 0 25.724L88.64 330.784a25.784 25.784 0 0 0 22.324 12.862h49.475a25.783 25.783 0 0 1-22.323-12.862Z"/><path fill="#377DFF" d="m186.893 330.785-84.427-145.924a25.681 25.681 0 0 1 0-25.724l84.427-145.924A25.788 25.788 0 0 1 209.216.353h-49.475c-9.21 0-17.72 4.903-22.324 12.863L52.99 159.14a25.68 25.68 0 0 0 0 25.724l84.427 145.924a25.786 25.786 0 0 0 22.324 12.862h49.475a25.793 25.793 0 0 1-22.323-12.865Z"/><path fill="#37DBFF" d="m236.613 330.785-84.426-145.924a25.681 25.681 0 0 1 0-25.724l84.426-145.924A25.788 25.788 0 0 1 258.937.353h-49.476a25.785 25.785 0 0 0-22.323 12.863L102.711 159.14a25.68 25.68 0 0 0 0 25.724l84.427 145.924a25.786 25.786 0 0 0 22.323 12.862h49.476a25.793 25.793 0 0 1-22.324-12.865Z"/></svg>