<svg width="32" height="31" fill="none" xmlns="http://www.w3.org/2000/svg"><path d="m19.997 1.629 7.377 12.748a2.243 2.243 0 0 1 0 2.247L19.997 29.37a2.253 2.253 0 0 1-1.95 1.124h4.323c.804 0 1.548-.428 1.95-1.124l7.377-12.747a2.243 2.243 0 0 0 0-2.247L24.32 1.629A2.253 2.253 0 0 0 22.37.505h-4.323c.805 0 1.548.429 1.95 1.124Z" fill="#39435A"/><path d="m19.997 1.629.33.568c.558.008 1.138.054 1.73.14 1.179.174 2.265.489 3.193.9l-.93-1.608A2.252 2.252 0 0 0 22.37.505h-4.323c.805 0 1.548.429 1.95 1.124Z" fill="#2C374C"/><path d="m11.677 1.629 7.377 12.748a2.243 2.243 0 0 1 0 2.247L11.677 29.37a2.253 2.253 0 0 1-1.95 1.124h4.322c.805 0 1.549-.428 1.951-1.124l7.377-12.747a2.243 2.243 0 0 0 0-2.247L16 1.629A2.253 2.253 0 0 0 14.05.505H9.726c.804 0 1.548.429 1.95 1.124Z" fill="#39435A"/><path d="M12.001 29.371 4.625 16.624a2.243 2.243 0 0 1 0-2.248L12 1.63a2.253 2.253 0 0 1 1.95-1.124H9.63c-.805 0-1.548.428-1.95 1.124L.301 14.376a2.243 2.243 0 0 0 0 2.248L7.678 29.37a2.253 2.253 0 0 0 1.951 1.124h4.323a2.253 2.253 0 0 1-1.95-1.124Z" fill="#435F94"/><path d="M16.263 29.371 8.886 16.624a2.243 2.243 0 0 1 0-2.248L16.263 1.63a2.253 2.253 0 0 1 1.95-1.124h-4.322c-.805 0-1.549.429-1.95 1.124L4.562 14.377a2.243 2.243 0 0 0 0 2.247L11.94 29.37a2.253 2.253 0 0 0 1.95 1.124h4.324a2.254 2.254 0 0 1-1.95-1.124Z" fill="#377DFF"/><path d="M20.607 29.371 13.23 16.624a2.243 2.243 0 0 1 0-2.248L20.607 1.63a2.253 2.253 0 0 1 1.95-1.124h-4.323c-.804 0-1.548.429-1.95 1.124L8.907 14.377a2.243 2.243 0 0 0 0 2.247l7.377 12.747a2.253 2.253 0 0 0 1.95 1.124h4.323a2.254 2.254 0 0 1-1.95-1.124Z" fill="#37DBFF"/></svg>