<svg width="104" height="76" fill="none" xmlns="http://www.w3.org/2000/svg"><ellipse cx="4.796" cy="5" rx="4.796" ry="5" fill="#377DFF"/><ellipse cx="4.796" cy="48.784" rx="4.796" ry="5" fill="#377DFF"/><ellipse cx="42.451" cy="5" rx="4.796" ry="5" fill="#377DFF"/><ellipse cx="42.451" cy="48.784" rx="4.796" ry="5" fill="#377DFF"/><ellipse cx="80.107" cy="5" rx="4.796" ry="5" fill="#377DFF"/><ellipse cx="80.107" cy="48.784" rx="4.796" ry="5" fill="#377DFF"/><ellipse cx="4.796" cy="26.892" rx="4.796" ry="5" fill="#377DFF"/><ellipse cx="4.796" cy="70.676" rx="4.796" ry="5" fill="#377DFF"/><ellipse cx="42.451" cy="26.892" rx="4.796" ry="5" fill="#377DFF"/><ellipse cx="42.451" cy="70.676" rx="4.796" ry="5" fill="#377DFF"/><ellipse cx="80.107" cy="26.892" rx="4.796" ry="5" fill="#377DFF"/><ellipse cx="80.107" cy="70.676" rx="4.796" ry="5" fill="#377DFF"/><ellipse cx="23.624" cy="5" rx="4.796" ry="5" fill="#377DFF"/><ellipse cx="23.624" cy="48.784" rx="4.796" ry="5" fill="#377DFF"/><ellipse cx="61.279" cy="5" rx="4.796" ry="5" fill="#377DFF"/><ellipse cx="61.279" cy="48.784" rx="4.796" ry="5" fill="#377DFF"/><ellipse cx="98.934" cy="5" rx="4.796" ry="5" fill="#377DFF"/><ellipse cx="98.934" cy="48.784" rx="4.796" ry="5" fill="#377DFF"/><ellipse cx="23.624" cy="26.892" rx="4.796" ry="5" fill="#377DFF"/><ellipse cx="23.624" cy="70.676" rx="4.796" ry="5" fill="#377DFF"/><ellipse cx="61.279" cy="26.892" rx="4.796" ry="5" fill="#377DFF"/><ellipse cx="61.279" cy="70.676" rx="4.796" ry="5" fill="#377DFF"/><ellipse cx="98.934" cy="26.892" rx="4.796" ry="5" fill="#377DFF"/><ellipse cx="98.934" cy="70.676" rx="4.796" ry="5" fill="#377DFF"/></svg>