<svg width="211" height="71" fill="none" xmlns="http://www.w3.org/2000/svg"><g fill="#FF5C00"><ellipse cx="2.398" cy="2.5" rx="2.398" ry="2.5"/><ellipse cx="2.398" cy="46.284" rx="2.398" ry="2.5"/><ellipse cx="40.053" cy="2.5" rx="2.398" ry="2.5"/><ellipse cx="40.053" cy="46.284" rx="2.398" ry="2.5"/><ellipse cx="77.709" cy="2.5" rx="2.398" ry="2.5"/><ellipse cx="77.709" cy="46.284" rx="2.398" ry="2.5"/><ellipse cx="2.398" cy="24.392" rx="2.398" ry="2.5"/><ellipse cx="2.398" cy="68.176" rx="2.398" ry="2.5"/><ellipse cx="40.053" cy="24.392" rx="2.398" ry="2.5"/><ellipse cx="40.053" cy="68.176" rx="2.398" ry="2.5"/><ellipse cx="77.709" cy="24.392" rx="2.398" ry="2.5"/><ellipse cx="77.709" cy="68.176" rx="2.398" ry="2.5"/><ellipse cx="21.226" cy="2.5" rx="2.398" ry="2.5"/><ellipse cx="21.226" cy="46.284" rx="2.398" ry="2.5"/><ellipse cx="58.881" cy="2.5" rx="2.398" ry="2.5"/><ellipse cx="58.881" cy="46.284" rx="2.398" ry="2.5"/><ellipse cx="96.536" cy="2.5" rx="2.398" ry="2.5"/><ellipse cx="96.536" cy="46.284" rx="2.398" ry="2.5"/><ellipse cx="21.226" cy="24.392" rx="2.398" ry="2.5"/><ellipse cx="21.226" cy="68.176" rx="2.398" ry="2.5"/><ellipse cx="58.881" cy="24.392" rx="2.398" ry="2.5"/><ellipse cx="58.881" cy="68.176" rx="2.398" ry="2.5"/><ellipse cx="96.536" cy="24.392" rx="2.398" ry="2.5"/><ellipse cx="96.536" cy="68.176" rx="2.398" ry="2.5"/><ellipse cx="114.23" cy="2.625" rx="2.5" ry="2.625"/><ellipse cx="114.23" cy="46.409" rx="2.5" ry="2.625"/><ellipse cx="151.62" cy="2.625" rx="2.5" ry="2.625"/><ellipse cx="151.62" cy="46.409" rx="2.5" ry="2.625"/><ellipse cx="189.01" cy="2.625" rx="2.5" ry="2.625"/><ellipse cx="189.01" cy="46.409" rx="2.5" ry="2.625"/><ellipse cx="114.23" cy="24.517" rx="2.5" ry="2.625"/><ellipse cx="114.23" cy="68.301" rx="2.5" ry="2.625"/><ellipse cx="151.62" cy="24.517" rx="2.5" ry="2.625"/><ellipse cx="151.62" cy="68.301" rx="2.5" ry="2.625"/><ellipse cx="189.01" cy="24.517" rx="2.5" ry="2.625"/><ellipse cx="189.01" cy="68.301" rx="2.5" ry="2.625"/><ellipse cx="132.925" cy="2.625" rx="2.5" ry="2.625"/><ellipse cx="132.925" cy="46.409" rx="2.5" ry="2.625"/><ellipse cx="170.315" cy="2.625" rx="2.5" ry="2.625"/><ellipse cx="170.315" cy="46.409" rx="2.5" ry="2.625"/><ellipse cx="207.705" cy="2.625" rx="2.5" ry="2.625"/><ellipse cx="207.705" cy="46.409" rx="2.5" ry="2.625"/><ellipse cx="132.925" cy="24.517" rx="2.5" ry="2.625"/><ellipse cx="132.925" cy="68.301" rx="2.5" ry="2.625"/><ellipse cx="170.315" cy="24.517" rx="2.5" ry="2.625"/><ellipse cx="170.315" cy="68.301" rx="2.5" ry="2.625"/><ellipse cx="207.705" cy="24.517" rx="2.5" ry="2.625"/><ellipse cx="207.705" cy="68.301" rx="2.5" ry="2.625"/></g></svg>