<svg width="36" height="38" fill="none" xmlns="http://www.w3.org/2000/svg"><ellipse cx="18" cy="19" rx="18" ry="18.004" fill="#fff"/><g clip-path="url(#a)" stroke="#383638" stroke-width="2" stroke-linecap="round" stroke-linejoin="round"><path d="M22.5 9.119h-9a4.5 4.5 0 0 0-4.5 4.5v9a4.5 4.5 0 0 0 4.5 4.5h9a4.5 4.5 0 0 0 4.5-4.5v-9a4.5 4.5 0 0 0-4.5-4.5Z"/><path d="M21.599 17.552a3.6 3.6 0 1 1-7.123 1.056 3.6 3.6 0 0 1 7.123-1.056ZM22.95 13.17h.008"/></g><defs><clipPath id="a"><path fill="#fff" transform="translate(7.2 7.32)" d="M0 0h21.6v21.6H0z"/></clipPath></defs></svg>