<svg width="36" height="38" fill="none" xmlns="http://www.w3.org/2000/svg"><ellipse cx="18" cy="19" rx="18" ry="18.004" fill="#fff"/><g clip-path="url(#a)"><path d="M27.898 10.02a9.811 9.811 0 0 1-2.826 1.376 4.032 4.032 0 0 0-7.074 2.7v.9a9.594 9.594 0 0 1-8.1-4.077s-3.6 8.1 4.5 11.7a10.477 10.477 0 0 1-6.3 1.8c8.1 4.5 18 0 18-10.35-.001-.25-.025-.5-.072-.747a6.95 6.95 0 0 0 1.872-3.303v0Z" stroke="#383638" stroke-width="2" stroke-linecap="round" stroke-linejoin="round"/></g><defs><clipPath id="a"><path fill="#fff" transform="translate(7.2 7.32)" d="M0 0h21.6v21.6H0z"/></clipPath></defs></svg>